<?xml version="1.0" standalone="no"?>
<svg xmlns="http://www.w3.org/2000/svg" viewBox="0 0 485.489495677181 251.96949567718104" width="485.489495677181" height="251.96949567718104"><rect fill="none" stroke="#ff5576" stroke-width="4" width="481.489495677181" height="247.96949567718104" x="2" y="2"></rect><g fill="#1525b4" color="#1525b4" transform="translate(12 12) scale(7.1240468)"><svg width="32.0" height="32.0" x="0.0" y="0.0" viewBox="0 0 32 32"><g><path d="M11,28c-5.5513,0-9-4.2148-9-11c0-0.5522,0.4478-1,1-1h16.1416C19.0469,15.6157,19,15.2339,19,14.8569   c0-2.5474,2.1689-4.519,2.2617-4.6021c0.3789-0.3398,0.9551-0.3398,1.334,0c0.0928,0.083,2.2617,2.0547,2.2617,4.6021   c0,0.0981-0.0029,0.1968-0.0098,0.2954c2.6543-0.1616,4.8115,2.1563,4.8975,2.252c0.3398,0.3799,0.3398,0.9541,0,1.334   C29.6621,18.8306,27.6914,21,25.1426,21c-0.6494,0-1.3076-0.1382-1.9678-0.4121C21.2305,24.7637,16.0386,28,11,28z M4.0347,18   c0.187,2.7349,1.2866,8,6.9653,8c4.5854,0,9.4834-3.2573,10.6953-7.1128c0.0938-0.2964,0.3193-0.5327,0.6104-0.6396   c0.2949-0.1069,0.6162-0.0713,0.8799,0.0952C23.873,18.7788,24.5313,19,25.1426,19c0.9141,0,1.7725-0.4917,2.3555-0.9297   c-0.5811-0.437-1.4385-0.9277-2.3555-0.9277c-0.3926,0-0.8066,0.0967-1.2656,0.2954c-0.376,0.1636-0.8145,0.0791-1.1045-0.2104   c-0.29-0.29-0.374-0.7275-0.2109-1.1045c0.1992-0.4595,0.2959-0.8735,0.2959-1.2661c0-0.9136-0.4922-1.772-0.9297-2.355   C21.4902,13.0835,21,13.9404,21,14.8569c0,0.5186,0.1621,1.0781,0.4824,1.6626c0.1699,0.3101,0.1631,0.686-0.0166,0.9902   C21.2861,17.8135,20.959,18,20.6055,18H4.0347z"></path><path d="M17,15h-3c-0.5522,0-1-0.4478-1-1v-3c0-0.5522,0.4478-1,1-1h3c0.5527,0,1,0.4478,1,1v3C18,14.5522,17.5527,15,17,15z    M15,13h1v-1h-1V13z"></path><path d="M8,15H5c-0.5522,0-1-0.4478-1-1v-3c0-0.5522,0.4478-1,1-1h3c0.5522,0,1,0.4478,1,1v3C9,14.5522,8.5522,15,8,15z M6,13h1v-1   H6V13z"></path><path d="M11,12H8c-0.5522,0-1-0.4478-1-1V8c0-0.5522,0.4478-1,1-1h3c0.5522,0,1,0.4478,1,1v3C12,11.5522,11.5522,12,11,12z M9,10h1   V9H9V10z"></path><path d="M11,15H8c-0.5522,0-1-0.4478-1-1v-3c0-0.5522,0.4478-1,1-1h3c0.5522,0,1,0.4478,1,1v3C12,14.5522,11.5522,15,11,15z M9,13   h1v-1H9V13z"></path><path d="M14,9h-3c-0.5522,0-1-0.4478-1-1V5c0-0.5522,0.4478-1,1-1h3c0.5522,0,1,0.4478,1,1v3C15,8.5522,14.5522,9,14,9z M12,7h1V6   h-1V7z"></path><path d="M14,12h-3c-0.5522,0-1-0.4478-1-1V8c0-0.5522,0.4478-1,1-1h3c0.5522,0,1,0.4478,1,1v3C15,11.5522,14.5522,12,14,12z M12,10   h1V9h-1V10z"></path><path d="M14,15h-3c-0.5522,0-1-0.4478-1-1v-3c0-0.5522,0.4478-1,1-1h3c0.5522,0,1,0.4478,1,1v3C15,14.5522,14.5522,15,14,15z    M12,13h1v-1h-1V13z"></path><circle cx="7.5" cy="20.5" r="1.5"></circle></g></svg></g><path fill="#1525b4" fill-rule="nonzero" d="M32.96 27.52L24.20 27.52L24.20 17.60Q24.20 15.76 24.34 13.82Q24.48 11.88 24.64 10.56Q24.80 9.24 24.84 8.88L24.84 8.88L24.68 8.88L19.60 27.52L12.68 27.52L7.56 8.92L7.40 8.92Q7.44 9.28 7.62 10.58Q7.80 11.88 7.96 13.82Q8.12 15.76 8.12 17.60L8.12 17.60L8.12 27.52L0 27.52L0 0L12.48 0L16.64 15.88L16.80 15.88L20.92 0L32.96 0L32.96 27.52ZM55.40 16.84L55.40 27.52L46.56 27.52L46.56 16.84L35.64 0L45.80 0L51.08 9.16L51.24 9.16L56.52 0L66.16 0L55.40 16.84Z" transform="translate(254.97 12) scale(3.303)"></path><path fill="#1525b4" fill-rule="nonzero" d="M11.92 0.48Q26.36 0.48 26.36 14.24L26.36 14.24Q26.36 28 11.92 28L11.92 28L0 28L0 0.48L11.92 0.48ZM8.84 7.08L8.84 21.40L11.76 21.40Q17.32 21.40 17.32 15.44L17.32 15.44L17.32 13.04Q17.32 7.08 11.76 7.08L11.76 7.08L8.84 7.08ZM44.80 0Q51.92 0 55.80 3.64Q59.68 7.28 59.68 14.24L59.68 14.24Q59.68 21.20 55.80 24.84Q51.92 28.48 44.80 28.48L44.80 28.48Q37.68 28.48 33.82 24.86Q29.96 21.24 29.96 14.24L29.96 14.24Q29.96 7.24 33.82 3.62Q37.68 0 44.80 0L44.80 0ZM44.80 6.60Q41.96 6.60 40.48 8.32Q39 10.04 39 12.96L39 12.96L39 15.52Q39 18.44 40.48 20.16Q41.96 21.88 44.80 21.88L44.80 21.88Q47.64 21.88 49.14 20.16Q50.64 18.44 50.64 15.52L50.64 15.52L50.64 12.96Q50.64 10.04 49.14 8.32Q47.64 6.60 44.80 6.60L44.80 6.60ZM77.56 0Q83.68 0 87.24 3.06Q90.80 6.12 90.80 11.80L90.80 11.80L82.36 11.80Q82.36 9.40 81.10 8Q79.84 6.60 77.52 6.60L77.52 6.60Q74.84 6.60 73.58 8.28Q72.32 9.96 72.32 12.96L72.32 12.96L72.32 15.52Q72.32 18.48 73.58 20.18Q74.84 21.88 77.44 21.88L77.44 21.88Q80 21.88 81.32 20.56Q82.64 19.24 82.64 16.84L82.64 16.84L90.80 16.84Q90.80 22.48 87.34 25.48Q83.88 28.48 77.56 28.48L77.56 28.48Q70.52 28.48 66.90 24.88Q63.28 21.28 63.28 14.24L63.28 14.24Q63.28 7.20 66.90 3.60Q70.52 0 77.56 0L77.56 0ZM104.40 12.24L114.20 0.48L125.16 0.48L115.28 11.80L125.36 28L114.92 28L109.20 17.92L104.40 21.84L104.40 28L95.56 28L95.56 0.48L104.40 0.48L104.40 12.24ZM128.88 28L128.88 0.48L152.68 0.48L152.68 7.08L137.72 7.08L137.72 10.88L150.52 10.88L150.52 17.20L137.72 17.20L137.72 21.40L152.96 21.40L152.96 28L128.88 28ZM183.88 8.92Q183.88 11.44 182.52 13.48Q181.16 15.52 178.56 16.48L178.56 16.48L184.68 28L174.76 28L169.88 17.96L166.60 17.96L166.60 28L157.76 28L157.76 0.48L174.60 0.48Q177.56 0.48 179.66 1.62Q181.76 2.76 182.82 4.70Q183.88 6.64 183.88 8.92L183.88 8.92ZM174.88 9.28Q174.88 8.20 174.16 7.48Q173.44 6.76 172.40 6.76L172.40 6.76L166.60 6.76L166.60 11.84L172.40 11.84Q173.44 11.84 174.16 11.10Q174.88 10.36 174.88 9.28L174.88 9.28Z" transform="translate(254.97 110.896) scale(1.184)"></path><path fill="#1525b4" fill-rule="nonzero" d="M14.28 0Q20.40 0 23.96 3.06Q27.52 6.12 27.52 11.80L27.52 11.80L19.08 11.80Q19.08 9.40 17.82 8Q16.56 6.60 14.24 6.60L14.24 6.60Q11.56 6.60 10.30 8.28Q9.04 9.96 9.04 12.96L9.04 12.96L9.04 15.52Q9.04 18.48 10.30 20.18Q11.56 21.88 14.16 21.88L14.16 21.88Q16.72 21.88 18.04 20.56Q19.36 19.24 19.36 16.84L19.36 16.84L27.52 16.84Q27.52 22.48 24.06 25.48Q20.60 28.48 14.28 28.48L14.28 28.48Q7.24 28.48 3.62 24.88Q0 21.28 0 14.24L0 14.24Q0 7.20 3.62 3.60Q7.24 0 14.28 0L14.28 0ZM45.96 0Q53.08 0 56.96 3.64Q60.84 7.28 60.84 14.24L60.84 14.24Q60.84 21.20 56.96 24.84Q53.08 28.48 45.96 28.48L45.96 28.48Q38.84 28.48 34.98 24.86Q31.12 21.24 31.12 14.24L31.12 14.24Q31.12 7.24 34.98 3.62Q38.84 0 45.96 0L45.96 0ZM45.96 6.60Q43.12 6.60 41.64 8.32Q40.16 10.04 40.16 12.96L40.16 12.96L40.16 15.52Q40.16 18.44 41.64 20.16Q43.12 21.88 45.96 21.88L45.96 21.88Q48.80 21.88 50.30 20.16Q51.80 18.44 51.80 15.52L51.80 15.52L51.80 12.96Q51.80 10.04 50.30 8.32Q48.80 6.60 45.96 6.60L45.96 6.60ZM98 28L89.24 28L89.24 18.08Q89.24 16.24 89.38 14.30Q89.52 12.36 89.68 11.04Q89.84 9.72 89.88 9.36L89.88 9.36L89.72 9.36L84.64 28L77.72 28L72.60 9.40L72.44 9.40Q72.48 9.76 72.66 11.06Q72.84 12.36 73 14.30Q73.16 16.24 73.16 18.08L73.16 18.08L73.16 28L65.04 28L65.04 0.48L77.52 0.48L81.68 16.36L81.84 16.36L85.96 0.48L98 0.48L98 28ZM118.80 0.48Q121.36 0.48 123.36 1.66Q125.36 2.84 126.48 4.90Q127.60 6.96 127.60 9.52L127.60 9.52L127.60 10.04Q127.60 12.60 126.48 14.68Q125.36 16.76 123.36 17.94Q121.36 19.12 118.80 19.12L118.80 19.12L112.20 19.12L112.20 28L103.36 28L103.36 0.48L118.80 0.48ZM112.20 7L112.20 12.68L115.84 12.68Q117.24 12.68 117.94 11.96Q118.64 11.24 118.64 10L118.64 10L118.64 9.68Q118.64 8.40 117.94 7.70Q117.24 7 115.84 7L115.84 7L112.20 7ZM145.92 0Q153.04 0 156.92 3.64Q160.80 7.28 160.80 14.24L160.80 14.24Q160.80 21.20 156.92 24.84Q153.04 28.48 145.92 28.48L145.92 28.48Q138.80 28.48 134.94 24.86Q131.08 21.24 131.08 14.24L131.08 14.24Q131.08 7.24 134.94 3.62Q138.80 0 145.92 0L145.92 0ZM145.92 6.60Q143.08 6.60 141.60 8.32Q140.12 10.04 140.12 12.96L140.12 12.96L140.12 15.52Q140.12 18.44 141.60 20.16Q143.08 21.88 145.92 21.88L145.92 21.88Q148.76 21.88 150.26 20.16Q151.76 18.44 151.76 15.52L151.76 15.52L151.76 12.96Q151.76 10.04 150.26 8.32Q148.76 6.60 145.92 6.60L145.92 6.60ZM177.12 0Q182.40 0 185.80 2.14Q189.20 4.28 189.28 8.48L189.28 8.48L189.28 8.96L181 8.96L181 8.80Q181 7.60 180.12 6.80Q179.24 6 177.44 6L177.44 6Q175.68 6 174.74 6.52Q173.80 7.04 173.80 7.80L173.80 7.80Q173.80 8.88 175.08 9.40Q176.36 9.92 179.20 10.48L179.20 10.48Q182.52 11.16 184.66 11.90Q186.80 12.64 188.40 14.32Q190 16 190.04 18.88L190.04 18.88Q190.04 23.76 186.74 26.12Q183.44 28.48 177.92 28.48L177.92 28.48Q171.48 28.48 167.90 26.32Q164.32 24.16 164.32 18.68L164.32 18.68L172.68 18.68Q172.68 20.76 173.76 21.46Q174.84 22.16 177.12 22.16L177.12 22.16Q178.80 22.16 179.90 21.80Q181 21.44 181 20.32L181 20.32Q181 19.32 179.78 18.82Q178.56 18.32 175.80 17.76L175.80 17.76Q172.44 17.04 170.24 16.26Q168.04 15.48 166.40 13.68Q164.76 11.88 164.76 8.80L164.76 8.80Q164.76 4.28 168.26 2.14Q171.76 0 177.12 0L177.12 0ZM194.44 28L194.44 0.48L218.24 0.48L218.24 7.08L203.28 7.08L203.28 10.88L216.08 10.88L216.08 17.20L203.28 17.20L203.28 21.40L218.52 21.40L218.52 28L194.44 28Z" transform="translate(254.97 152.595) scale(1)"></path><path fill="#1525b4" fill-rule="nonzero" d="M0 28L0 0.48L22.24 0.48L22.24 7.08L8.84 7.08L8.84 11.80L20.36 11.80L20.36 18.12L8.84 18.12L8.84 28L0 28ZM35.92 28L27.08 28L27.08 0.48L35.92 0.48L35.92 28ZM42.24 28L42.24 0.48L51.08 0.48L51.08 20.96L65.20 20.96L65.20 28L42.24 28ZM68.92 28L68.92 0.48L92.72 0.48L92.72 7.08L77.76 7.08L77.76 10.88L90.56 10.88L90.56 17.20L77.76 17.20L77.76 21.40L93 21.40L93 28L68.92 28ZM109.36 0Q114.64 0 118.04 2.14Q121.44 4.28 121.52 8.48L121.52 8.48L121.52 8.96L113.24 8.96L113.24 8.80Q113.24 7.60 112.36 6.80Q111.48 6 109.68 6L109.68 6Q107.92 6 106.98 6.52Q106.04 7.04 106.04 7.80L106.04 7.80Q106.04 8.88 107.32 9.40Q108.60 9.92 111.44 10.48L111.44 10.48Q114.76 11.16 116.90 11.90Q119.04 12.64 120.64 14.32Q122.24 16 122.28 18.88L122.28 18.88Q122.28 23.76 118.98 26.12Q115.68 28.48 110.16 28.48L110.16 28.48Q103.72 28.48 100.14 26.32Q96.56 24.16 96.56 18.68L96.56 18.68L104.92 18.68Q104.92 20.76 106 21.46Q107.08 22.16 109.36 22.16L109.36 22.16Q111.04 22.16 112.14 21.80Q113.24 21.44 113.24 20.32L113.24 20.32Q113.24 19.32 112.02 18.82Q110.80 18.32 108.04 17.76L108.04 17.76Q104.68 17.04 102.48 16.26Q100.28 15.48 98.64 13.68Q97 11.88 97 8.80L97 8.80Q97 4.28 100.50 2.14Q104 0 109.36 0L109.36 0Z" transform="translate(254.97 189.075) scale(1.788)"></path></svg>